<svg width="248" height="144" viewBox="0 0 248 144" fill="none" xmlns="http://www.w3.org/2000/svg">
  <title>FlDatePicker SVG preview</title>
  <rect x="32" y="22" width="184" height="32" rx="4" fill="#171A1E" />
  <rect x="32" y="22" width="184" height="32" rx="4" fill="url(#fl-date-picker-shell)" />
  <rect x="32" y="22" width="184" height="32" rx="4" stroke="#0083FF" />
  <rect x="42" y="31" width="14" height="14" rx="2" stroke="#6F7781" />
  <path d="M42 36H56" stroke="#6F7781" />
  <path d="M46 28.5V33" stroke="#6F7781" stroke-linecap="round" />
  <path d="M52 28.5V33" stroke="#6F7781" stroke-linecap="round" />
  <text x="65" y="44" fill="#6F7781" font-size="17" font-weight="700" letter-spacing="0">
    YY-MM-DD
  </text>
  <rect x="32" y="66" width="184" height="62" rx="4" fill="#171A1E" />
  <rect x="32" y="66" width="184" height="62" rx="4" stroke="#8C929B" />
  <path d="M36 66h176c2.2 0 4 1.8 4 4v18H32V70c0-2.2 1.8-4 4-4Z" fill="#3D4146" />
  <rect x="47" y="75" width="10" height="4" rx="2" fill="#6F7781" />
  <rect x="71" y="75" width="10" height="4" rx="2" fill="#6F7781" />
  <rect x="95" y="75" width="10" height="4" rx="2" fill="#6F7781" />
  <rect x="119" y="75" width="10" height="4" rx="2" fill="#6F7781" />
  <rect x="143" y="75" width="10" height="4" rx="2" fill="#6F7781" />
  <rect x="167" y="75" width="10" height="4" rx="2" fill="#6F7781" />
  <rect x="191" y="75" width="10" height="4" rx="2" fill="#6F7781" />
  <rect x="47" y="96" width="10" height="10" rx="3" fill="#3D4146" />
  <rect x="71" y="96" width="10" height="10" rx="3" fill="#3D4146" />
  <rect x="95" y="96" width="10" height="10" rx="3" fill="#3D4146" />
  <rect x="119" y="96" width="10" height="10" rx="3" fill="#3D4146" />
  <rect x="141" y="94" width="14" height="14" rx="4" stroke="#4EA8FF" />
  <rect x="144" y="97" width="8" height="8" rx="3" fill="#0083FF" />
  <rect x="167" y="96" width="10" height="10" rx="3" fill="#3D4146" />
  <rect x="191" y="96" width="10" height="10" rx="3" fill="#3D4146" />
  <rect x="47" y="112" width="10" height="10" rx="3" fill="#3D4146" />
  <rect x="71" y="112" width="10" height="10" rx="3" fill="#3D4146" />
  <rect x="95" y="112" width="10" height="10" rx="3" fill="#3D4146" />
  <rect x="119" y="112" width="10" height="10" rx="3" fill="#3D4146" />
  <rect x="143" y="112" width="10" height="10" rx="3" fill="#3D4146" />
  <rect x="167" y="112" width="10" height="10" rx="3" fill="#3D4146" />
  <rect x="191" y="112" width="10" height="10" rx="3" fill="#3D4146" />
  <defs>
    <linearGradient
      id="fl-date-picker-shell"
      x1="32"
      y1="22"
      x2="216"
      y2="54"
      gradientUnits="userSpaceOnUse">
      <stop stop-color="#2A3038" stop-opacity=".44" />
      <stop offset="1" stop-color="#0E1115" stop-opacity=".16" />
    </linearGradient>
  </defs>
</svg>
